<svg version="1.1" id="Layer_1" xmlns="http://www.w3.org/2000/svg" xmlns:xlink="http://www.w3.org/1999/xlink" x="0px" y="0px"
	 width="100%" viewBox="0 0 3002 1005" enable-background="new 0 0 3002 1005" xml:space="preserve">
<path fill="#FFFFFF" opacity="1.000000" stroke="none" 
	d="
M2129.000000,1006.000000 
	C1420.833374,1006.000000 713.166687,1005.996521 5.500012,1006.092712 
	C1.751008,1006.093201 0.905761,1005.249084 0.906896,1001.500000 
	C1.007408,669.500000 1.007408,337.500000 0.906896,5.500029 
	C0.905761,1.750900 1.751033,0.907052 5.500009,0.907410 
	C1003.166687,1.002465 2000.833374,1.002465 2998.500000,0.907410 
	C3002.249023,0.907053 3003.094238,1.750897 3003.093018,5.500028 
	C3002.992432,337.500000 3002.992676,669.500000 3003.093262,1001.500000 
	C3003.094482,1005.249084 3002.249268,1006.094543 2998.500000,1006.093201 
	C2708.833252,1005.991516 2419.166748,1006.000000 2129.000000,1006.000000 
z"/>
<path fill="#DCE5F1" opacity="1.000000" stroke="none" 
	d="
M1265.747559,639.207886 
	C1255.623047,627.218323 1251.876953,613.630005 1251.917725,598.386780 
	C1252.119873,522.908142 1252.064209,447.428558 1251.967773,371.949493 
	C1251.946167,355.051270 1257.511353,340.666687 1270.184570,329.417633 
	C1279.525635,321.126343 1290.529175,316.066162 1303.178833,316.055023 
	C1410.982422,315.960175 1518.786133,315.994171 1626.589722,316.005646 
	C1650.162476,316.008148 1672.904541,335.310944 1677.074219,358.569183 
	C1677.755859,362.370911 1678.014282,366.127167 1678.013794,369.950378 
	C1678.004395,448.428741 1678.021606,526.907104 1677.993408,605.385437 
	C1677.984619,629.951538 1657.185913,653.012817 1632.800049,656.113403 
	C1627.318359,656.810364 1621.892822,656.967773 1616.424805,656.968567 
	C1513.953003,656.983704 1411.481323,657.005310 1309.009521,656.953796 
	C1292.372925,656.945435 1277.737793,651.681641 1265.747559,639.207886 
z"/>
<path fill="#DCE5F1" opacity="1.000000" stroke="none" 
	d="
M1219.751709,466.812378 
	C1220.004883,512.654602 1220.040894,558.309265 1220.001587,603.963867 
	C1219.981567,627.227661 1227.056274,647.984924 1243.413330,664.609985 
	C1257.601318,679.030579 1275.146973,687.882263 1295.778076,687.924866 
	C1398.083984,688.135986 1500.390503,688.024963 1602.696899,688.028564 
	C1609.505127,688.028809 1609.645752,688.077148 1607.640015,694.492371 
	C1601.496216,714.143311 1595.490479,733.843262 1588.943481,753.360535 
	C1582.893188,771.397522 1563.692383,784.207947 1545.933350,784.230225 
	C1532.594238,784.246948 1520.512451,779.740112 1508.085815,776.437744 
	C1449.447021,760.854980 1390.898926,744.930603 1332.285156,729.252625 
	C1290.327515,718.029663 1248.333862,706.940002 1206.323242,695.916443 
	C1184.974854,690.314819 1171.760010,676.944763 1167.403687,655.324280 
	C1165.846191,647.593872 1167.128052,639.803284 1169.425049,632.214539 
	C1180.096802,596.956543 1190.709595,561.680664 1201.327881,526.406433 
	C1207.209595,506.866913 1213.060669,487.318146 1218.972900,467.395020 
	C1219.181274,466.885925 1219.342407,466.755310 1219.751709,466.812378 
z"/>
<path fill="#ECF1F8" opacity="1.000000" stroke="none" 
	d="
M1220.219360,466.837952 
	C1220.000000,467.000000 1219.509644,467.004181 1219.264893,467.010345 
	C1219.132935,466.255249 1219.092651,465.267456 1220.260620,465.505646 
	C1220.792236,465.614105 1220.754272,466.220245 1220.219360,466.837952 
z"/>
<path fill="#FFFFFF" opacity="1.000000" stroke="none" 
	d="
M1635.975586,401.000000 
	C1635.975586,438.495697 1635.994385,475.491455 1635.917969,512.487000 
	C1635.914307,514.263428 1637.165039,516.956116 1634.563477,517.678284 
	C1632.532959,518.241943 1631.795288,515.805481 1630.633789,514.440857 
	C1622.030762,504.333832 1613.342407,494.299286 1604.711670,484.215729 
	C1593.279419,470.859467 1581.502197,457.776642 1570.546387,444.039612 
	C1554.158081,423.490936 1524.636230,424.131622 1508.234131,445.372589 
	C1497.701416,459.012451 1486.290405,471.974243 1475.273926,485.240448 
	C1464.469116,498.251587 1453.673462,511.270294 1442.854614,524.269775 
	C1440.201050,527.458069 1437.409180,530.532776 1434.798950,533.755188 
	C1432.858887,536.150391 1431.371582,535.983765 1429.187500,533.816772 
	C1421.276489,525.967896 1412.775146,518.682007 1405.218262,510.515808 
	C1393.402832,497.747894 1367.438965,498.145752 1354.876465,510.242249 
	C1336.276978,528.151794 1318.338013,546.708435 1299.856812,564.724365 
	C1298.570312,565.978394 1297.618774,567.575989 1296.478027,569.057434 
	C1294.355347,567.051147 1295.026855,565.474670 1295.026001,564.115906 
	C1294.984985,499.623383 1294.987671,435.130829 1294.993774,370.638306 
	C1294.994629,362.089355 1298.139038,358.980042 1306.775391,358.979675 
	C1411.263306,358.975067 1515.751343,359.088257 1620.238770,358.846649 
	C1634.727417,358.813141 1635.047974,363.882812 1635.843384,374.512726 
	C1636.488281,383.130219 1635.975098,391.834320 1635.975586,401.000000 
z"/>
<path fill="#DCE5F1" opacity="1.000000" stroke="none" 
	d="
M1389.751953,451.722015 
	C1374.468140,466.936066 1352.339966,469.845337 1334.848267,457.698181 
	C1314.405640,443.501801 1309.786255,417.584717 1324.008301,397.604980 
	C1334.419189,382.979584 1349.390015,377.638275 1366.372681,380.574402 
	C1385.008667,383.796356 1396.684937,396.027618 1400.493774,414.517273 
	C1403.328735,428.279144 1399.393433,440.821991 1389.751953,451.722015 
z"/>
</svg>